<?xml version="1.0" encoding="UTF-8"?>
<!DOCTYPE svg PUBLIC "-//W3C//DTD SVG 1.1//EN" "http://www.w3.org/Graphics/SVG/1.1/DTD/svg11.dtd">
<!-- Creator: CorelDRAW -->
<svg xmlns="http://www.w3.org/2000/svg" xml:space="preserve" width="400px" height="250px" version="1.1" shape-rendering="geometricPrecision" text-rendering="geometricPrecision" image-rendering="optimizeQuality" fill-rule="evenodd" clip-rule="evenodd"
viewBox="0 0 400 250"
 xmlns:xlink="http://www.w3.org/1999/xlink"
 xmlns:xodm="http://www.corel.com/coreldraw/odm/2003">
 <g id="Layer_x0020_1">
  <metadata id="CorelCorpID_0Corel-Layer"/>
  <g id="_3032392667440">
   <g>
    <path fill="#FEFEFE" fill-rule="nonzero" d="M55.39 48.72c-4.71,0 -8.6,1.92 -10.61,5.35 -1.64,-3.33 -5.16,-5.35 -9.96,-5.35 -4.62,0 -8.14,1.88 -10.01,5.03l0 -4.66 -4.39 0 0 32 4.57 0 0 -19.11c0,-6.45 3.65,-9.19 8.73,-9.19 4.66,0 7.77,2.7 7.77,8.55l0 19.75 4.52 0 0 -19.11c0,-6.45 3.57,-9.19 8.6,-9.19 4.62,0 8,2.7 8,8.55l0 19.75 4.52 0 0 -19.89c0,-8.23 -4.48,-12.48 -11.74,-12.48zm38.67 8.14l0 11.25c0,5.21 -2.93,8.04 -7.5,8.04 -4.16,0 -6.54,-2.38 -6.54,-7.08l0 -12.21 -4.38 0 0 12.71c0,7.13 4.16,10.51 10.42,10.51 3.29,0 6.22,-1.28 8,-3.61l0 1.78c0,5.49 -2.38,8.09 -7.73,8.09 -3.38,0 -6.53,-1.18 -8.64,-3.1l-2.15 3.38c2.57,2.38 6.82,3.61 11.02,3.61 7.82,0 11.89,-3.89 11.89,-12.43l0 -20.94 -4.39 0zm-32.07 32.22c-11.51,0 -21.55,4.43 -27.9,13.14l0 -12.4 -13.58 0 0 106.87 14.17 0 0 -40.45c6.5,8.42 16.24,12.7 27.31,12.7 22.88,0 39.56,-15.94 39.56,-40 0,-23.92 -16.68,-39.86 -39.56,-39.86zm-1.18 67.46c-14.91,0 -26.28,-10.92 -26.28,-27.6 0,-16.54 11.37,-27.46 26.28,-27.46 15.06,0 26.42,10.92 26.42,27.46 0,16.68 -11.36,27.6 -26.42,27.6zm160.8 -53.58l0 -13.14 -13.59 0 0 78.23 14.18 0 0 -38.97c0,-17.12 9.44,-26.42 24.65,-26.42 1.03,0 2.07,0 3.25,0.15l0 -13.73c-13.73,0 -23.48,4.72 -28.49,13.88zm70.83 50.33c-2.96,2.37 -6.94,3.69 -11.07,3.69 -7.98,0 -12.26,-4.72 -12.26,-13.14l0 -42.36 22.44 0 0 -11.66 -22.44 0 0 -17.13 -14.17 0 0 71.75c0,15.79 9.01,24.5 24.8,24.5 6.35,0 12.84,-1.77 17.12,-5.46l-4.42 -10.19zm40.57 15.65c23.47,0 40.59,-16.68 40.59,-40 0,-23.33 -17.12,-39.86 -40.59,-39.86 -23.48,0 -40.75,16.53 -40.75,39.86 0,23.32 17.27,40 40.75,40zm0 -12.4c-15.06,0 -26.43,-10.92 -26.43,-27.6 0,-16.68 11.37,-27.46 26.43,-27.46 15.05,0 26.27,10.78 26.27,27.46 0,16.68 -11.22,27.6 -26.27,27.6zm-186.05 12.58c-8.89,0 -16.66,-1.69 -23.3,-5.07 -6.64,-3.38 -11.8,-8.15 -15.47,-14.31 -3.68,-6.17 -5.51,-13.28 -5.51,-21.35 0,-10.55 2.37,-20.03 7.11,-28.45 4.74,-8.42 11.32,-15.03 19.74,-19.83 8.42,-4.8 17.9,-7.2 28.45,-7.2 8.9,0 16.66,1.66 23.3,4.98 6.64,3.32 11.77,8.03 15.39,14.14 3.61,6.1 5.42,13.25 5.42,21.43 0,10.55 -2.37,20.06 -7.11,28.54 -4.75,8.48 -11.3,15.12 -19.65,19.92 -8.36,4.8 -17.82,7.2 -28.37,7.2zm1.07 -14.94c6.99,0 13.31,-1.69 18.94,-5.07 5.63,-3.37 10.01,-8.09 13.16,-14.13 3.14,-6.05 4.71,-12.93 4.71,-20.63 0,-8.42 -2.43,-14.94 -7.29,-19.57 -4.86,-4.62 -11.8,-6.93 -20.81,-6.93 -6.99,0 -13.28,1.69 -18.85,5.07 -5.57,3.37 -9.96,8.09 -13.16,14.13 -3.2,6.05 -4.8,12.93 -4.8,20.63 0,8.3 2.46,14.79 7.38,19.48 4.92,4.68 11.82,7.02 20.72,7.02zm181.34 20.72l0 11.93c0,4.71 -1.64,6.97 -5.42,6.97 -3.82,0 -5.59,-2.26 -5.59,-6.97l0 -11.93 -4.03 0 0 11.93c0,4.71 -1.76,6.97 -5.59,6.97 -3.82,0 -5.46,-2.26 -5.46,-6.97l0 -11.93 -4.03 0 0 12.31c0,6.51 3.23,10.21 9.49,10.21 3.66,0 6.14,-1.26 7.61,-4 1.51,2.86 4.11,4 7.56,4 6.22,0 9.49,-3.7 9.49,-10.21l0 -12.31 -4.03 0zm18.14 18.99c-3.73,0 -6.51,-1.77 -7.64,-4.83l17.69 -3.45c-0.13,-6.64 -4.88,-10.92 -10.97,-10.92 -6.47,0 -11.18,4.75 -11.18,11.34 0,6.64 4.79,11.39 11.98,11.39 3.7,0 6.76,-1.26 8.74,-3.62l-2.19 -2.6c-1.64,1.81 -3.82,2.69 -6.43,2.69zm-0.92 -15.8c3.61,0 6.26,2.27 6.97,5.46l-14.24 2.69 0 -0.42c0,-4.66 3.03,-7.73 7.27,-7.73zm25.04 -3.4c-3.16,0 -5.93,1.17 -7.78,3.57l0 -12.27 -4.03 0 0 31.18 3.86 0 0 -3.53c1.81,2.52 4.67,3.78 7.95,3.78 6.51,0 11.25,-4.58 11.25,-11.39 0,-6.81 -4.74,-11.34 -11.25,-11.34zm-0.34 19.2c-4.25,0 -7.48,-3.11 -7.48,-7.86 0,-4.75 3.23,-7.81 7.48,-7.81 4.28,0 7.52,3.06 7.52,7.81 0,4.75 -3.24,7.86 -7.52,7.86z"/>
   </g>
  </g>
 </g>
</svg>
